<svg xmlns="http://www.w3.org/2000/svg" xmlns:xlink="http://www.w3.org/1999/xlink"
    xmlns:inkscape="http://www.inkscape.org/namespaces/inkscape" version="1.1" width="71.26299"
    height="71.26299" viewBox="0 0 71.26299 71.26299">
    <g id="OriComo Logo (Green areas)">
    </g>
    <g id="OriComo Logo (Blue areas)">
        <path transform="matrix(1,0,0,-1,0,71.26299)"
            d="M55.13 52.04C55.13 48.02 51.85 44.7 47.79 44.7 43.77 44.7 40.42 48.02 40.42 52.04 40.42 56.13 43.77 59.47 47.79 59.47 51.85 59.47 55.13 56.13 55.13 52.04"
            fill="#486493" fill-rule="evenodd" />
        <path transform="matrix(1,0,0,-1,0,71.26299)"
            d="M46.66 33.51C42.15 33.51 40 36.09 37.28 39.69 35.4 42.04 34.16 43.54 32.49 43.65 31.61 43.65 28.26 43.4 24.29 37.84 23.41 36.62 21.74 36.34 20.58 37.22 19.33 38.07 19.08 39.74 19.93 40.96 25.4 48.5 30.76 49.07 32.8 48.93 36.99 48.73 39.43 45.5 41.47 42.89 43.37 40.45 44.65 38.92 46.43 38.86 48.76 38.72 51.53 40.96 53.29 43.14 54.23 44.28 55.93 44.42 57.06 43.51 58.2 42.58 58.34 40.88 57.4 39.74 55.81 37.84 51.73 33.51 46.66 33.51"
            fill="#486493" fill-rule="evenodd" />
        <path transform="matrix(1,0,0,-1,0,71.26299)"
            d="M54.57 10.91C53.69 10.91 52.84 11.4 52.36 12.19 42.55 27.52 35.01 28.09 32.94 27.89 30.3 27.61 28.12 25.85 25.85 24.01 22.9 21.6 19.62 18.91 14.91 19.47 8.82 20.27 5.92 25.97 4.2 29.31 3.57 30.59 4.03 32.23 5.33 32.91 6.69 33.56 8.25 33.05 8.96 31.72 10.69 28.29 12.53 25.17 15.62 24.77 17.89 24.49 19.7 25.85 22.45 28.12 25.12 30.27 28.18 32.77 32.43 33.19 34.75 33.42 38.47 33 43.2 29.99 47.88 26.96 52.44 21.91 56.81 15.02 57.63 13.8 57.23 12.13 55.98 11.34 55.56 11.06 55.08 10.91 54.57 10.91"
            fill="#486493" fill-rule="evenodd" />
        <path transform="matrix(1,0,0,-1,0,71.26299)"
            d="M57.32 38.78 52.84 43.26C52.13 44.02 52.16 45.04 52.84 45.86L59.87 52.87C60.58 53.57 61.74 53.57 62.48 52.87L66.93 48.39C67.66 47.62 67.66 46.52 66.93 45.78L59.92 38.78C59.24 38.18 58.25 37.98 57.32 38.78M58.25 39.74C58.48 39.57 58.76 39.57 58.96 39.74L65.96 46.77C66.13 46.94 66.13 47.23 65.96 47.45L61.48 51.9C61.31 52.04 61 52.04 60.8 51.9L53.8 44.87C53.63 44.7 53.63 44.39 53.8 44.22L58.25 39.74"
            fill="#486493" fill-rule="evenodd" />
    </g>
</svg>