<svg width="144.02835" height="43.313386" viewBox="0 0 144.02835 43.313386"
    xmlns="http://www.w3.org/2000/svg">
    <g id="OriComo Logo (Green areas)">
        <path transform="matrix(1,0,0,-1,0,43.313386)"
            d="M88.58 22.39C87.85 22.76 87.08 23.16 86.17 23.36 85.21 23.64 84.27 23.73 83.57 23.73 81.89 23.73 80.31 23.36 79.03 22.51 77.61 21.74 76.56 20.64 75.86 19.22 75.09 17.74 74.78 16.16 74.78 14.4 74.78 12.61 75 11.06 75.74 9.67 76.42 8.28 77.44 7.17 78.8 6.41 80.11 5.56 81.69 5.22 83.57 5.22 84.42 5.22 85.32 5.3 86.26 5.5 87.28 5.78 88.13 6.07 88.78 6.41L87.19 9.5C85.97 8.84 84.76 8.56 83.57 8.56 82.74 8.56 81.89 8.84 81.24 9.33 80.5 9.86 79.94 10.49 79.57 11.45 79.09 12.25 78.92 13.29 78.92 14.4 78.92 15.53 79.17 16.64 79.57 17.46 80.02 18.43 80.59 19.16 81.24 19.59 81.98 20.07 82.74 20.35 83.57 20.35 84.22 20.35 84.76 20.27 85.21 20.21 85.69 20.07 86.34 19.9 87.36 19.5L88.58 22.39"
            fill="#6e9d76" fill-rule="evenodd" />
        <path transform="matrix(1,0,0,-1,0,43.313386)"
            d="M103.63 11.88C103.63 10.49 103.35 9.33 102.81 8.33 102.16 7.34 101.31 6.6 100.29 6.07 99.16 5.5 97.97 5.22 96.58 5.22 95.27 5.22 94.08 5.5 92.95 6.07 91.93 6.52 91.13 7.26 90.54 8.28 89.97 9.33 89.58 10.49 89.57 11.88 89.57 13.29 90 14.51 90.54 15.53 91.16 16.53 92.01 17.29 93.03 17.86 94.08 18.43 95.27 18.71 96.69 18.71 98.08 18.71 99.3 18.43 100.29 17.86 101.42 17.29 102.27 16.53 102.81 15.53 103.35 14.51 103.63 13.29 103.63 11.88M96.69 8.65C97.51 8.65 98.16 8.93 98.65 9.5 99.16 10.12 99.47 10.86 99.47 11.88 99.47 12.87 99.16 13.66 98.73 14.31 98.16 15 97.51 15.25 96.69 15.25 95.84 15.25 95.19 15 94.62 14.31 94.17 13.78 93.88 12.93 93.88 11.88 93.88 10.97 94.17 10.12 94.62 9.58 95.19 8.93 95.84 8.65 96.69 8.65"
            fill="#6e9d76" fill-rule="evenodd" />
        <path transform="matrix(1,0,0,-1,0,43.313386)"
            d="M122.06 18.71C123.53 18.71 124.64 18.2 125.29 17.4 125.97 16.64 126.31 15.42 126.31 13.86V5.56H122.23V13.29C122.23 13.92 122.15 14.51 121.83 14.77 121.66 15.17 121.32 15.34 120.76 15.34 120.39 15.34 120.02 15.25 119.54 15.05 119.06 14.77 118.6 14.51 118.03 14.23V13.86 5.56H113.95V13.29C113.95 13.92 113.87 14.51 113.58 14.77 113.44 15.17 113.05 15.34 112.48 15.34 112.2 15.34 111.74 15.25 111.29 15.05 110.78 14.77 110.32 14.51 109.76 14.23V5.56H105.62V18.2H108.2L108.85 16.95C109.67 17.46 110.44 17.86 111.4 18.2 112.2 18.51 112.93 18.71 113.67 18.71 115.43 18.71 116.65 18.11 117.33 17.04 118.03 17.46 118.89 17.94 119.74 18.2 120.44 18.51 121.32 18.71 122.06 18.71"
            fill="#6e9d76" fill-rule="evenodd" />
        <path transform="matrix(1,0,0,-1,0,43.313386)"
            d="M142.24 11.88C142.24 10.49 141.85 9.33 141.28 8.33 140.66 7.34 139.83 6.6 138.78 6.07 137.76 5.5 136.46 5.22 135.16 5.22 133.8 5.22 132.55 5.5 131.56 6.07 130.42 6.52 129.57 7.26 129.03 8.28 128.47 9.33 128.21 10.49 128.21 11.88 128.21 13.29 128.47 14.51 129.03 15.53 129.66 16.53 130.51 17.29 131.56 17.86 132.66 18.43 133.85 18.71 135.16 18.71 136.54 18.71 137.76 18.43 138.9 17.86 139.92 17.29 140.74 16.53 141.28 15.53 141.96 14.51 142.24 13.29 142.24 11.88M135.16 8.65C135.98 8.65 136.63 8.93 137.2 9.5 137.68 10.12 137.96 10.86 137.96 11.88 137.96 12.87 137.68 13.66 137.2 14.31 136.74 15 135.98 15.25 135.27 15.25 134.33 15.25 133.68 15 133.2 14.31 132.66 13.78 132.38 12.93 132.38 11.88 132.38 10.97 132.66 10.12 133.11 9.58 133.68 8.93 134.33 8.65 135.16 8.65"
            fill="#6e9d76" fill-rule="evenodd" />
        <path transform="matrix(1,0,0,-1,0,43.313386)"
            d="M44.19 12.42 68.74 12.47C68.91 12.47 68.91 12.59 68.8 12.73L64.77 18.28C63.81 19.59 62.87 20.49 61.23 20.49 60.01 20.49 59.3 19.96 58.54 19.02 58.39 18.88 58.31 19.08 58.2 19.19L53.06 25.34C52.87 25.57 52.67 25.57 52.5 25.34L44.14 12.67C43.99 12.5 43.99 12.42 44.19 12.42M52.5 13.86H51C51 13.86 50.94 13.83 50.94 13.8V13.61C50.94 13.61 50.94 13.55 50.91 13.55H50.74C50.71 13.55 50.66 13.61 50.66 13.61V13.8C50.66 13.83 50.66 13.86 50.63 13.86H49.61C49.61 13.86 49.55 13.83 49.55 13.8V13.52C49.55 13.44 49.35 13.49 49.27 13.49 49.24 13.49 49.21 13.52 49.21 13.55V13.8C49.21 13.83 49.18 13.86 49.12 13.86H47.85C47.82 13.86 47.76 13.83 47.76 13.8V13.52C47.76 13.49 47.74 13.44 47.68 13.44H47.54C47.51 13.44 47.51 13.49 47.51 13.52V13.8C47.51 13.83 47.45 13.86 47.4 13.86H46.8C46.77 13.86 46.72 13.89 46.77 13.97L47.93 16.16C47.96 16.19 47.96 16.19 47.99 16.19L48.56 15.65C48.56 15.62 48.64 15.65 48.64 15.65L49.44 17.18C49.49 17.23 49.55 17.26 49.61 17.18L50.03 16.58C50.06 16.53 50.12 16.53 50.14 16.58L50.43 16.89C50.46 16.89 50.54 16.89 50.54 16.89L52.55 13.97C52.61 13.89 52.55 13.86 52.5 13.86"
            fill="#6e9d76" fill-rule="evenodd" />
    </g>
    <g id="OriComo Logo (Blue areas)">
        <path transform="matrix(1,0,0,-1,0,43.313386)"
            d="M43.57 35.6C43.57 32.31 40.88 29.57 37.53 29.57 34.24 29.57 31.52 32.31 31.52 35.6 31.52 38.95 34.24 41.7 37.53 41.7 40.88 41.7 43.57 38.95 43.57 35.6"
            fill="#486493" fill-rule="evenodd" />
        <path transform="matrix(1,0,0,-1,0,43.313386)"
            d="M36.62 20.35C32.94 20.35 31.18 22.51 28.91 25.46 27.38 27.38 26.36 28.63 24.97 28.71 24.26 28.71 21.52 28.49 18.26 23.95 17.55 22.93 16.19 22.71 15.22 23.41 14.17 24.12 14 25.48 14.68 26.48 19.16 32.68 23.58 33.17 25.23 33.05 28.69 32.85 30.7 30.22 32.37 28.06 33.9 26.08 34.95 24.83 36.43 24.77 38.32 24.66 40.62 26.48 42.07 28.29 42.86 29.23 44.22 29.31 45.16 28.6 46.09 27.84 46.2 26.42 45.47 25.48 44.14 23.95 40.79 20.35 36.62 20.35"
            fill="#486493" fill-rule="evenodd" />
        <path transform="matrix(1,0,0,-1,0,43.313386)"
            d="M43.11 1.81C42.41 1.81 41.67 2.21 41.3 2.89 33.25 15.48 27.04 15.93 25.34 15.79 23.19 15.53 21.4 14.12 19.53 12.59 17.12 10.6 14.43 8.39 10.57 8.87 5.56 9.5 3.18 14.2 1.79 16.95 1.25 17.97 1.59 19.33 2.72 19.9 3.8 20.44 5.1 20.01 5.67 18.91 7.12 16.1 8.59 13.55 11.14 13.21 13.01 12.98 14.49 14.12 16.75 15.96 18.94 17.74 21.43 19.79 24.94 20.13 26.87 20.3 29.91 19.96 33.79 17.52 37.64 15.02 41.36 10.86 44.96 5.19 45.64 4.22 45.3 2.86 44.25 2.18 43.91 1.96 43.54 1.81 43.11 1.81"
            fill="#486493" fill-rule="evenodd" />
        <path transform="matrix(1,0,0,-1,0,43.313386)"
            d="M45.35 24.72 41.67 28.4C41.13 29 41.16 29.82 41.67 30.53L47.45 36.26C48.08 36.85 48.98 36.85 49.61 36.26L53.26 32.6C53.86 31.97 53.86 31.04 53.26 30.44L47.51 24.72C46.94 24.21 46.15 24.07 45.35 24.72M46.15 25.48C46.35 25.34 46.57 25.34 46.71 25.48L52.47 31.27C52.61 31.41 52.61 31.63 52.47 31.83L48.78 35.46C48.64 35.6 48.42 35.6 48.22 35.46L42.46 29.71C42.35 29.57 42.35 29.31 42.46 29.2L46.15 25.48"
            fill="#486493" fill-rule="evenodd" />
        <path transform="matrix(1,0,0,-1,0,43.313386)"
            d="M56.27 6.24 43.99 11.68C43.91 11.68 43.91 11.82 44.05 11.82L59.5 10.52 68.83 11.79C68.91 11.79 68.94 11.68 68.91 11.65L56.35 6.24C56.32 6.21 56.3 6.21 56.27 6.24"
            fill="#486493" fill-rule="evenodd" />
        <path transform="matrix(1,0,0,-1,0,43.313386)"
            d="M78.86 36.99C78.12 36.91 77.41 36.79 76.76 36.37 76.11 36.06 75.63 35.57 75.32 34.92 74.98 34.24 74.83 33.53 74.83 32.74 74.83 31.92 74.95 31.24 75.29 30.61 75.63 29.99 76.08 29.48 76.73 29.14 77.3 28.74 78.09 28.57 78.86 28.57 79.65 28.57 80.39 28.74 81.01 29.14 81.61 29.48 82.09 29.99 82.43 30.61 82.77 31.27 82.97 31.97 82.97 32.83 82.97 33.56 82.77 34.3 82.49 34.92 82.15 35.57 81.67 36.06 81.07 36.45 80.45 36.79 79.71 36.99 78.86 36.99M76.73 32.74C76.73 33.25 76.85 33.73 76.99 34.13 77.22 34.53 77.44 34.92 77.78 35.09 78.15 35.29 78.49 35.43 78.92 35.43 79.34 35.43 79.71 35.29 80.02 35.09 80.36 34.87 80.59 34.53 80.76 34.13 80.9 33.73 81.01 33.28 81.01 32.83 81.01 32.23 80.9 31.72 80.76 31.32 80.53 30.95 80.28 30.61 79.94 30.42 79.6 30.22 79.29 30.13 78.86 30.13 78.24 30.13 77.67 30.33 77.3 30.81 76.93 31.32 76.73 31.92 76.73 32.74"
            fill="#486493" fill-rule="evenodd" />
        <path transform="matrix(1,0,0,-1,0,43.313386)"
            d="M85.8 32.14C86.06 32.4 86.43 32.6 86.77 32.77 87.17 32.91 87.42 32.94 87.7 32.94L87.34 34.5C87.08 34.5 86.74 34.36 86.4 34.19 86 34.04 85.66 33.87 85.41 33.65L84.84 34.5H83.93V28.74H85.8V32.14"
            fill="#486493" fill-rule="evenodd" />
        <path transform="matrix(1,0,0,-1,0,43.313386)"
            d="M89.38 35.26C89.69 35.26 89.89 35.38 90.14 35.57 90.34 35.77 90.4 36.03 90.4 36.31 90.4 36.57 90.34 36.79 90.14 37.05 89.89 37.25 89.69 37.33 89.38 37.33 89.09 37.33 88.89 37.25 88.64 37.05 88.5 36.79 88.36 36.57 88.36 36.31 88.36 36.03 88.5 35.77 88.64 35.57 88.89 35.38 89.09 35.26 89.38 35.26M90.34 28.74V34.5H88.44V28.74H90.34"
            fill="#486493" fill-rule="evenodd" />
        <path transform="matrix(1,0,0,-1,0,43.313386)"
            d="M96.92 31.63C96.92 32.23 96.83 32.74 96.6 33.17 96.38 33.62 96.07 33.99 95.7 34.24 95.27 34.5 94.79 34.64 94.17 34.64 93.63 34.64 93.09 34.53 92.64 34.3 92.18 34.04 91.84 33.65 91.59 33.19 91.39 32.74 91.19 32.14 91.19 31.61 91.19 30.61 91.5 29.91 92.1 29.37 92.72 28.89 93.54 28.57 94.59 28.57 95.02 28.57 95.5 28.63 95.9 28.8 96.26 28.89 96.6 29.06 96.83 29.23L96.35 30.56C95.81 30.25 95.24 30.1 94.71 30.1 93.88 30.1 93.37 30.42 93.2 31.07H96.92V31.63M93.2 32.15C93.2 32.46 93.32 32.71 93.46 32.83 93.66 33.05 93.91 33.14 94.17 33.14 94.42 33.14 94.68 33.05 94.85 32.83 94.99 32.71 95.1 32.46 95.13 32.14H93.2V32.15"
            fill="#486493" fill-rule="evenodd" />
        <path transform="matrix(1,0,0,-1,0,43.313386)"
            d="M99.64 32.63C100.2 32.94 100.63 33.17 100.97 33.17 101.23 33.17 101.37 33.11 101.48 32.91 101.62 32.74 101.65 32.51 101.65 32.23V28.74H103.58V32.4C103.58 33.11 103.38 33.65 103.07 34.04 102.78 34.5 102.25 34.64 101.48 34.64 101.2 34.64 100.8 34.58 100.4 34.5 99.95 34.3 99.58 34.13 99.24 33.87L98.9 34.5H97.77V28.74H99.64V32.63"
            fill="#486493" fill-rule="evenodd" />
        <path transform="matrix(1,0,0,-1,0,43.313386)"
            d="M106.92 34.33V36.11L105.11 35.77V34.33H104.23V32.91H105.11V30.7C105.11 30.02 105.28 29.51 105.79 29.14 106.24 28.74 106.87 28.52 107.57 28.52 107.83 28.52 108.06 28.57 108.34 28.63 108.62 28.74 108.82 28.89 108.94 28.94L108.4 30.25C108.17 30.13 107.94 30.1 107.72 30.1 107.43 30.1 107.26 30.19 107.15 30.33 106.98 30.53 106.92 30.7 106.92 30.95V32.91H108.54L108.17 34.33H106.92"
            fill="#486493" fill-rule="evenodd" />
        <path transform="matrix(1,0,0,-1,0,43.313386)"
            d="M115 31.63C115 32.23 114.97 32.74 114.77 33.17 114.52 33.62 114.24 33.99 113.81 34.24 113.47 34.5 112.96 34.64 112.37 34.64 111.77 34.64 111.26 34.53 110.81 34.3 110.32 34.04 110.01 33.65 109.76 33.19 109.5 32.74 109.39 32.14 109.39 31.61 109.39 30.61 109.67 29.91 110.27 29.37 110.89 28.89 111.69 28.57 112.73 28.57 113.19 28.57 113.67 28.63 114.07 28.8 114.41 28.89 114.78 29.06 115 29.23L114.49 30.56C113.95 30.25 113.44 30.1 112.85 30.1 112.08 30.1 111.54 30.42 111.34 31.07H115V31.63M111.34 32.15C111.4 32.46 111.46 32.71 111.66 32.83 111.8 33.05 112.08 33.14 112.34 33.14 112.59 33.14 112.82 33.05 113.02 32.83 113.13 32.71 113.24 32.46 113.27 32.14H111.34V32.15"
            fill="#486493" fill-rule="evenodd" />
        <path transform="matrix(1,0,0,-1,0,43.313386)"
            d="M121.32 31.63C121.32 32.23 121.21 32.74 120.98 33.17 120.76 33.62 120.44 33.99 120.05 34.24 119.65 34.5 119.17 34.64 118.57 34.64 118.01 34.64 117.47 34.53 117.01 34.3 116.56 34.04 116.22 33.65 115.99 33.19 115.71 32.74 115.6 32.14 115.6 31.61 115.6 30.61 115.88 29.91 116.48 29.37 117.1 28.89 117.89 28.57 118.97 28.57 119.42 28.57 119.91 28.63 120.27 28.8 120.64 28.89 120.98 29.06 121.24 29.23L120.76 30.56C120.19 30.25 119.62 30.1 119.11 30.1 118.26 30.1 117.78 30.42 117.58 31.07H121.32V31.63M117.58 32.15C117.58 32.46 117.69 32.71 117.86 32.83 118.03 33.05 118.29 33.14 118.54 33.14 118.8 33.14 119.06 33.05 119.17 32.83 119.34 32.71 119.51 32.46 119.51 32.14H117.58V32.15"
            fill="#486493" fill-rule="evenodd" />
        <path transform="matrix(1,0,0,-1,0,43.313386)"
            d="M123.99 32.14C124.3 32.4 124.64 32.6 124.95 32.77 125.35 32.91 125.63 32.94 125.97 32.94L125.57 34.5C125.26 34.5 124.92 34.36 124.61 34.19 124.24 34.04 123.87 33.87 123.62 33.65L123.05 34.5H122.14V28.74H123.99V32.14"
            fill="#486493" fill-rule="evenodd" />
        <path transform="matrix(1,0,0,-1,0,43.313386)"
            d="M127.56 35.26C127.87 35.26 128.13 35.38 128.32 35.57 128.55 35.77 128.64 36.03 128.64 36.31 128.64 36.57 128.55 36.79 128.32 37.05 128.13 37.25 127.87 37.33 127.56 37.33 127.33 37.33 127.08 37.25 126.85 37.05 126.68 36.79 126.54 36.57 126.54 36.31 126.54 36.03 126.68 35.77 126.85 35.57 127.08 35.38 127.33 35.26 127.56 35.26M128.55 28.74V34.5H126.65V28.74H128.55"
            fill="#486493" fill-rule="evenodd" />
        <path transform="matrix(1,0,0,-1,0,43.313386)"
            d="M131.64 32.63C132.21 32.94 132.66 33.17 133 33.17 133.2 33.17 133.37 33.11 133.48 32.91 133.63 32.74 133.68 32.51 133.68 32.23V28.74H135.58V32.4C135.58 33.11 135.38 33.65 135.07 34.04 134.73 34.5 134.25 34.64 133.54 34.64 133.17 34.64 132.78 34.58 132.38 34.5 131.98 34.3 131.56 34.13 131.24 33.87L130.88 34.5H129.74V28.74H131.64V32.63"
            fill="#486493" fill-rule="evenodd" />
        <path transform="matrix(1,0,0,-1,0,43.313386)"
            d="M142.24 34.5V28.49C142.24 27.98 142.16 27.58 141.85 27.16 141.56 26.73 141.19 26.48 140.77 26.31 140.26 26.08 139.72 26.02 139.15 26.02 138.78 26.02 138.36 26.05 137.88 26.16 137.31 26.31 136.97 26.48 136.63 26.65L137.17 27.95C137.82 27.67 138.44 27.5 139.01 27.5 139.41 27.5 139.78 27.58 139.97 27.78 140.26 27.95 140.37 28.18 140.37 28.49V28.83C140 28.63 139.69 28.57 139.32 28.57 138.44 28.57 137.71 28.89 137.17 29.37 136.66 29.88 136.4 30.61 136.4 31.61 136.4 32.6 136.66 33.28 137.2 33.85 137.76 34.36 138.47 34.64 139.41 34.64 139.66 34.64 139.95 34.58 140.2 34.5 140.49 34.36 140.74 34.24 141 34.04L141.28 34.5H142.24M139.52 30.1C139.78 30.1 140.06 30.19 140.37 30.42V32.83C140.09 33.11 139.78 33.17 139.46 33.17 139.15 33.17 138.87 33.05 138.61 32.74 138.44 32.46 138.27 32.06 138.27 31.61 138.27 31.12 138.44 30.78 138.61 30.44 138.87 30.22 139.15 30.1 139.52 30.1"
            fill="#486493" fill-rule="evenodd" />
    </g>
</svg>